<!-- icon666.com - MILLIONS vector ICONS FREE --><svg id="Capa_1" enable-background="new 0 0 512 512" viewBox="0 0 512 512" xmlns="http://www.w3.org/2000/svg"><g><g><path d="m301 15-30 21.562v88.719l30 26.719h30l30-60v-55.437l-30-21.563z" fill="#fabe2c"></path><path d="m181 15-30 30v47l30 60h30l30-30v-77l-30-30z" fill="#fff261"></path><path d="m331 15v137l60-60v-77z" fill="#6b77e8"></path><path d="m121 15v77l60 60v-137z" fill="#3aaaff"></path><path d="m256 15h-45v137h45 45v-137z" fill="#3aaaff"></path><path d="m256 15h45v137h-45z" fill="#6b77e8"></path><path d="m256 0h-165v30h165 165v-30z" fill="#fff7cc"></path><path d="m256 0h165v30h-165z" fill="#ffe6b3"></path></g><path d="m391 257v-75h-75l-60-60-60 60h-75v75l-60 60 60 60v75h75l60 60 60-60h75v-75l60-60z" fill="#fff261"></path><path d="m391 452v-75l60-60-60-60v-75h-75l-60-60v390l60-60z" fill="#fabe2c"></path><path d="m331 285.945v-43.945h-43.945l-31.055-31.055-31.055 31.055h-43.945v43.945l-31.055 31.055 31.055 31.055v43.945h43.945l31.055 31.055 31.055-31.055h43.945v-43.945l31.055-31.055z" fill="#fabe2c"></path><path d="m331 392v-43.945l31.055-31.055-31.055-31.055v-43.945h-43.945l-31.055-31.055v212.11l31.055-31.055z" fill="#ff9100"></path></g></svg>