<!-- icon666.com - MILLIONS vector ICONS FREE --><svg version="1.1" id="Capa_1" xmlns="http://www.w3.org/2000/svg" xmlns:xlink="http://www.w3.org/1999/xlink" x="0px" y="0px" viewBox="0 0 512 512" style="enable-background:new 0 0 512 512;" xml:space="preserve"><g transform="translate(1 1)"><path style="fill:#FFE100;" d="M365.946,391.553c0,61.276-49.67,110.946-110.946,110.946s-110.946-49.67-110.946-110.946 S193.724,280.606,255,280.606S365.946,330.276,365.946,391.553"></path><path style="fill:#FFA800;" d="M255,280.606c-4.336,0-8.594,0.307-12.802,0.794c55.235,6.358,98.145,53.211,98.145,110.153 s-42.911,103.794-98.145,110.153c4.208,0.486,8.466,0.794,12.802,0.794c61.276,0,110.946-49.67,110.946-110.946 S316.276,280.606,255,280.606"></path><path style="fill:#FFFFFF;" d="M255,280.606c4.336,0,8.594,0.307,12.802,0.794c-55.235,6.358-98.145,53.211-98.145,110.153 s42.911,103.794,98.145,110.153c-4.208,0.486-8.466,0.794-12.802,0.794c-61.276,0-110.946-49.67-110.946-110.946 S193.724,280.606,255,280.606"></path><g><polygon style="fill:#FFE100;" points="297.672,246.469 212.328,246.469 203.794,212.331 306.206,212.331 "></polygon><polygon style="fill:#FFE100;" points="212.328,7.507 118.451,7.507 203.794,212.331 220.863,212.331 256.809,126.075 "></polygon><polygon style="fill:#FFE100;" points="306.206,212.331 391.549,7.507 306.206,7.507 220.863,212.331 "></polygon></g><polygon style="fill:#FFA800;" points="365.946,7.507 280.603,212.331 306.206,212.331 391.549,7.507 "></polygon><polygon style="fill:#FFFFFF;" points="144.054,7.507 229.397,212.331 203.794,212.331 118.451,7.507 "></polygon><g><path style="fill:#FDCC00;" d="M280.603,451.294c0,14.142-11.461,25.603-25.603,25.603s-25.603-11.461-25.603-25.603 s11.461-25.603,25.603-25.603C269.142,425.691,280.603,437.152,280.603,451.294"></path><path style="fill:#FDCC00;" d="M280.603,331.812c0,14.142-11.461,25.603-25.603,25.603s-25.603-11.461-25.603-25.603 c0-14.142,11.461-25.603,25.603-25.603C269.142,306.209,280.603,317.671,280.603,331.812"></path><path style="fill:#FDCC00;" d="M340.343,391.553c0,14.142-11.461,25.603-25.603,25.603s-25.603-11.461-25.603-25.603 c0-14.142,11.461-25.603,25.603-25.603C328.882,365.949,340.343,377.412,340.343,391.553"></path><path style="fill:#FDCC00;" d="M220.863,391.553c0,14.142-11.461,25.603-25.603,25.603c-14.142,0-25.603-11.461-25.603-25.603 c0-14.142,11.461-25.603,25.603-25.603C209.401,365.949,220.863,377.412,220.863,391.553"></path></g><g><path style="fill:#141110;" d="M297.672,254.969h-85.343c-3.9,0-7.301-2.654-8.247-6.439l-8.534-34.137 c-0.635-2.539-0.064-5.23,1.546-7.293c1.61-2.063,4.082-3.269,6.701-3.269h102.412c2.617,0,5.09,1.206,6.701,3.269 c1.61,2.063,2.181,4.754,1.546,7.293l-8.534,34.137C304.973,252.315,301.573,254.969,297.672,254.969z M218.966,237.967h72.069 l4.283-17.135h-80.636L218.966,237.967z"></path><path style="fill:#141110;" d="M306.206,220.832h-85.343c-2.842,0-5.497-1.42-7.073-3.785c-1.577-2.365-1.867-5.362-0.774-7.985 L298.36,4.237c1.319-3.167,4.415-5.232,7.847-5.232h85.343c2.842,0,5.497,1.42,7.073,3.785s1.867,5.362,0.773,7.985 l-85.343,204.824C312.733,218.769,309.639,220.832,306.206,220.832z M233.615,203.83h66.924l78.259-187.822h-66.924 L233.615,203.83z"></path><path style="fill:#141110;" d="M255,289.107c-4.695,0-8.501-3.806-8.501-8.501v-34.138c0-4.695,3.806-8.501,8.501-8.501 c4.695,0,8.501,3.806,8.501,8.501v34.138C263.501,285.302,259.695,289.107,255,289.107z"></path><path style="fill:#141110;" d="M255,511c-65.863,0-119.447-53.583-119.447-119.447S189.137,272.104,255,272.104 s119.448,53.584,119.448,119.448S320.863,511,255,511z M255,289.107c-56.489,0-102.445,45.956-102.445,102.446 c0,56.488,45.956,102.445,102.445,102.445s102.446-45.956,102.446-102.445C357.445,335.064,311.489,289.107,255,289.107z"></path><path style="fill:#141110;" d="M220.863,220.832h-17.069c-3.432,0-6.527-2.063-7.847-5.232L110.603,10.776 c-1.093-2.623-0.803-5.62,0.774-7.985c1.576-2.365,4.231-3.785,7.073-3.785h93.878c3.542,0,6.715,2.197,7.959,5.515 l40.675,108.412c0.684,1.823,0.721,3.827,0.105,5.675l-32.14,96.412C227.77,218.491,224.521,220.832,220.863,220.832z M209.462,203.83h5.274l29.251-87.743L206.438,16.008h-75.236L209.462,203.83z"></path><path style="fill:#141110;" d="M263.53,220.835c-1.089,0-2.196-0.211-3.266-0.656c-4.334-1.806-6.383-6.783-4.577-11.116 L341.031,4.238c1.804-4.334,6.778-6.384,11.116-4.578c4.334,1.806,6.383,6.783,4.577,11.116L271.38,215.602 C270.021,218.866,266.86,220.835,263.53,220.835z"></path><path style="fill:#141110;" d="M232.915,184.688c-3.442,0-6.682-2.105-7.961-5.519L161.697,10.488 c-1.648-4.397,0.579-9.296,4.976-10.944c4.395-1.649,9.296,0.579,10.944,4.976l63.257,168.681 c1.648,4.397-0.579,9.296-4.976,10.944C234.916,184.514,233.907,184.688,232.915,184.688z"></path><path style="fill:#141110;" d="M255,485.398c-18.805,0-34.104-15.3-34.104-34.105s15.299-34.104,34.104-34.104 s34.105,15.299,34.105,34.104S273.805,485.398,255,485.398z M255,434.192c-9.43,0-17.102,7.672-17.102,17.102 c0,9.431,7.672,17.103,17.102,17.103c9.431,0,17.103-7.672,17.103-17.103C272.102,441.864,264.431,434.192,255,434.192z"></path><path style="fill:#141110;" d="M255,365.916c-18.805,0-34.104-15.299-34.104-34.104c0-18.805,15.299-34.105,34.104-34.105 s34.105,15.3,34.105,34.105C289.105,350.618,273.805,365.916,255,365.916z M255,314.71c-9.43,0-17.102,7.672-17.102,17.103 c0,9.43,7.672,17.102,17.102,17.102c9.431,0,17.103-7.672,17.103-17.102C272.102,322.382,264.431,314.71,255,314.71z"></path><path style="fill:#141110;" d="M314.74,425.657c-18.805,0-34.104-15.299-34.104-34.104c0-18.805,15.299-34.105,34.104-34.105 c18.805,0,34.104,15.3,34.104,34.105C348.844,410.358,333.546,425.657,314.74,425.657z M314.74,374.451 c-9.43,0-17.102,7.672-17.102,17.103c0,9.43,7.672,17.102,17.102,17.102s17.102-7.672,17.102-17.102 C331.842,382.122,324.17,374.451,314.74,374.451z"></path><path style="fill:#141110;" d="M195.259,425.657c-18.805,0-34.104-15.299-34.104-34.104c0-18.805,15.299-34.105,34.104-34.105 s34.104,15.3,34.104,34.105C229.363,410.358,214.064,425.657,195.259,425.657z M195.259,374.451 c-9.43,0-17.102,7.672-17.102,17.103c0,9.43,7.672,17.102,17.102,17.102s17.102-7.672,17.102-17.102 C212.362,382.122,204.69,374.451,195.259,374.451z"></path><path style="fill:#141110;" d="M289.138,400.055h-68.275c-4.695,0-8.501-3.806-8.501-8.501c0-4.695,3.806-8.501,8.501-8.501 h68.275c4.695,0,8.501,3.806,8.501,8.501C297.639,396.248,293.833,400.055,289.138,400.055z"></path><path style="fill:#141110;" d="M255,434.192c-4.695,0-8.501-3.806-8.501-8.501v-68.275c0-4.695,3.806-8.501,8.501-8.501 c4.695,0,8.501,3.806,8.501,8.501v68.275C263.501,430.385,259.695,434.192,255,434.192z"></path></g></g></svg>