<!-- icon666.com - MILLIONS vector ICONS FREE --><svg viewBox="-127 0 512 512" xmlns="http://www.w3.org/2000/svg"><path d="m201.117188 283.011719h-138.0625c-4.351563 0-7.878907-3.527344-7.878907-7.878907v-55.0625c0-13.324218 10.835938-24.160156 24.15625-24.160156h105.511719c13.320312 0 24.15625 10.839844 24.15625 24.160156v55.0625c0 4.351563-3.527344 7.878907-7.882812 7.878907zm-130.179688-15.761719h122.300781v-47.179688c0-4.632812-3.765625-8.398437-8.394531-8.398437h-105.511719c-4.628906 0-8.394531 3.765625-8.394531 8.398437zm0 0" fill="#c7cfe2"></path><path d="m258.628906 382.6875c0 71.417969-57.898437 129.3125-129.316406 129.3125s-129.3125-57.894531-129.3125-129.3125 57.894531-129.316406 129.3125-129.316406 129.316406 57.898437 129.316406 129.316406zm0 0" fill="#ffd782"></path><path d="m129.3125 253.371094c-8.488281 0-16.78125.828125-24.8125 2.390625 59.546875 11.574219 104.5 63.996093 104.5 126.925781 0 62.925781-44.953125 115.347656-104.5 126.921875 8.03125 1.5625 16.324219 2.390625 24.8125 2.390625 71.417969 0 129.316406-57.894531 129.316406-129.3125s-57.898437-129.316406-129.316406-129.316406zm0 0" fill="#ffc36f"></path><path d="m131.601562 312.0625 20.210938 40.957031c.371094.753907 1.089844 1.277344 1.921875 1.394531l45.199219 6.570313c2.089844.304687 2.925781 2.875 1.414062 4.347656l-32.707031 31.882813c-.601563.585937-.875 1.429687-.734375 2.257812l7.722656 45.015625c.355469 2.082031-1.828125 3.667969-3.699218 2.6875l-40.425782-21.253906c-.746094-.390625-1.632812-.390625-2.375 0l-40.425781 21.253906c-1.871094.980469-4.058594-.605469-3.699219-2.6875l7.71875-45.015625c.144532-.828125-.128906-1.671875-.730468-2.257812l-32.707032-31.882813c-1.511718-1.472656-.679687-4.042969 1.414063-4.347656l45.199219-6.570313c.828124-.117187 1.546874-.640624 1.917968-1.394531l20.214844-40.957031c.933594-1.894531 3.632812-1.894531 4.570312 0zm0 0" fill="#fff7d2"></path><path d="m169.300781 224.519531h-74.28125c-5.070312 0-9.179687-4.109375-9.179687-9.179687v-215.339844h92.640625v215.339844c0 5.070312-4.109375 9.179687-9.179688 9.179687zm0 0" fill="#ff4a4a"></path><path d="m143.996094 0v124.429688c0 32.121093-26.039063 58.15625-58.15625 58.15625v32.285156c0 5.328125 4.316406 9.648437 9.644531 9.648437h73.351563c5.328124 0 9.644531-4.320312 9.644531-9.648437v-214.871094zm0 0" fill="#ef3535"></path><g fill="#f8a28b"><path d="m85.839844 182.585938-46.535156-33.96875c-12.71875-9.28125-20.238282-24.082032-20.238282-39.824219v-108.792969h66.773438zm0 0"></path><path d="m178.480469 182.585938 46.539062-33.96875c12.714844-9.28125 20.234375-24.082032 20.234375-39.824219v-108.792969h-66.773437zm0 0"></path></g></svg>