<!-- icon666.com - MILLIONS vector ICONS FREE --><svg viewBox="0 0 48 48" xmlns="http://www.w3.org/2000/svg"><g id="_03-certificate" data-name="03-certificate"><path d="m5 20c0 4.28-.84 7.78-1.9 7.99a.34.34 0 0 1 -.1.01c-1.1 0-2-3.58-2-8s.9-8 2-8l.1.01c1.06.21 1.9 3.71 1.9 7.99z" fill="#bdc3f4"></path><path d="m45 12c1.1 0 2 3.58 2 8s-.9 8-2 8a.34.34 0 0 1 -.1-.01c-1.06-.21-1.9-3.71-1.9-7.99s.84-7.78 1.9-7.99a.34.34 0 0 1 .1-.01z" fill="#bdc3f4"></path><path d="m19 21.54v-7.54a1.759 1.759 0 0 1 .06-.46 2 2 0 0 1 1.94-1.54h6a2 2 0 0 1 1.94 1.54 1.759 1.759 0 0 1 .06.46v7.54a4.1 4.1 0 0 0 -2.34-.51 3.95 3.95 0 0 0 -5.32 0 4.1 4.1 0 0 0 -2.34.51z" fill="#ffab6f"></path><path d="m29 13.52 15.9-1.51c-1.06.21-1.9 3.71-1.9 7.99s.84 7.78 1.9 7.99l-12.9-1.23-.18.06a4.207 4.207 0 0 0 -.85-1.48 4 4 0 0 0 -1.14-3.17 3.87 3.87 0 0 0 -.83-.63v-7.54a1.759 1.759 0 0 0 -.06-.46z" fill="#e9e9ff"></path><path d="m19 14v7.54a3.87 3.87 0 0 0 -.83.63 4 4 0 0 0 -1.14 3.17 4.207 4.207 0 0 0 -.85 1.48l-.18-.06-12.9 1.23c1.06-.21 1.9-3.71 1.9-7.99s-.84-7.78-1.9-7.99l15.9 1.51.06.02a1.759 1.759 0 0 0 -.06.46z" fill="#e9e9ff"></path><path d="m24 36-4 8-2-4-4 2 3.82-8.59a2.786 2.786 0 0 0 .35.42 4 4 0 0 0 3.17 1.14 3.988 3.988 0 0 0 2.66 1.03z" fill="#ffab6f"></path><path d="m30.18 33.41 3.82 8.59-4-2-2 4-4-8a3.988 3.988 0 0 0 2.66-1.03 4 4 0 0 0 3.17-1.14 2.786 2.786 0 0 0 .35-.42z" fill="#ffab6f"></path><circle cx="24" cy="28" fill="#a86bff" r="4"></circle><path d="m31.45 26a3.911 3.911 0 0 1 0 4 3.983 3.983 0 0 1 -.48.66 3.954 3.954 0 0 1 -.79 2.75 2.786 2.786 0 0 1 -.35.42 4 4 0 0 1 -3.17 1.14 3.95 3.95 0 0 1 -5.32 0 4 4 0 0 1 -3.17-1.14 2.786 2.786 0 0 1 -.35-.42 3.954 3.954 0 0 1 -.79-2.75 3.983 3.983 0 0 1 -.48-.66 3.911 3.911 0 0 1 0-4 3.983 3.983 0 0 1 .48-.66 3.953 3.953 0 0 1 4.31-4.31 3.95 3.95 0 0 1 5.32 0 3.953 3.953 0 0 1 4.31 4.31 3.983 3.983 0 0 1 .48.66zm-3.45 2a4 4 0 1 0 -4 4 4 4 0 0 0 4-4z" fill="#fff86a"></path><path d="m29 21.54a3.87 3.87 0 0 1 .83.63 4 4 0 0 1 1.14 3.17 4.207 4.207 0 0 1 .85 1.48l.18-.06 12.9 1.23c-.905-.179-1.648-2.761-1.846-6.176l-14.054-1.338z" fill="#d6e0fb"></path><path d="m4.946 21.814c-.2 3.415-.941 6-1.846 6.176l12.9-1.23.18.06a4.207 4.207 0 0 1 .85-1.48 4 4 0 0 1 1.14-3.17 3.87 3.87 0 0 1 .83-.63v-1.064z" fill="#d6e0fb"></path><path d="m43.918 13.282a20.54 20.54 0 0 0 -.918 6.718 20.54 20.54 0 0 0 .918 6.718c.623-.846 1.082-3.53 1.082-6.718s-.459-5.872-1.082-6.718z" fill="#9196c6"></path><path d="m4.082 13.282a20.54 20.54 0 0 1 .918 6.718 20.54 20.54 0 0 1 -.918 6.718c-.623-.846-1.082-3.53-1.082-6.718s.459-5.872 1.082-6.718z" fill="#9196c6"></path><path d="m28.94 13.54a2 2 0 0 0 -1.94-1.54h-6a2 2 0 0 0 -1.94 1.54 1.759 1.759 0 0 0 -.06.46v3a1.759 1.759 0 0 1 .06-.46 2 2 0 0 1 1.94-1.54h6a2 2 0 0 1 1.94 1.54 1.759 1.759 0 0 1 .06.46v-3a1.759 1.759 0 0 0 -.06-.46z" fill="#ffbe90"></path><path d="m24 30a3.989 3.989 0 0 1 -3.859-3 4 4 0 1 0 7.718 0 3.989 3.989 0 0 1 -3.859 3z" fill="#8f62fe"></path><path d="m24 23a5 5 0 1 0 5 5 5 5 0 0 0 -5-5zm0 9a4 4 0 1 1 4-4 4 4 0 0 1 -4 4z" fill="#ffab6f"></path><path d="m19.627 36.746-1.627 3.254 2 4 3.064-6.127a4.069 4.069 0 0 1 -1.724-.9 4.155 4.155 0 0 1 -1.713-.227z" fill="#ff8f75"></path><path d="m26.66 36.97a4.069 4.069 0 0 1 -1.724.9l3.064 6.13 2-4-1.627-3.254a4.155 4.155 0 0 1 -1.713.224z" fill="#ff8f75"></path><path d="m21.34 34.97a4.2 4.2 0 0 1 -.816-.017l-.9 1.793a4.155 4.155 0 0 0 1.713.224 4.069 4.069 0 0 0 1.724.9l.939-1.87a3.988 3.988 0 0 1 -2.66-1.03z" fill="#ff767a"></path><path d="m18.17 35.83a3.891 3.891 0 0 0 1.457.916l.9-1.793a3.937 3.937 0 0 1 -2.357-1.123 2.786 2.786 0 0 1 -.35-.42l-.493 1.11a3.819 3.819 0 0 0 .493.89 2.786 2.786 0 0 0 .35.42z" fill="#ff8f75"></path><path d="m28.373 36.746-.9-1.793a4.2 4.2 0 0 1 -.816.017 3.988 3.988 0 0 1 -2.657 1.03l.936 1.873a4.069 4.069 0 0 0 1.724-.9 4.155 4.155 0 0 0 1.713-.227z" fill="#ff767a"></path><path d="m29.83 33.83a3.937 3.937 0 0 1 -2.354 1.123l.9 1.793a3.891 3.891 0 0 0 1.457-.916 2.786 2.786 0 0 0 .35-.42 3.819 3.819 0 0 0 .493-.89l-.493-1.11a2.786 2.786 0 0 1 -.353.42z" fill="#ff8f75"></path><path d="m31.45 26a3.983 3.983 0 0 0 -.48-.66 3.953 3.953 0 0 0 -4.31-4.31 3.95 3.95 0 0 0 -5.32 0 3.953 3.953 0 0 0 -4.31 4.31 3.983 3.983 0 0 0 -.48.66 3.911 3.911 0 0 0 0 4 3.983 3.983 0 0 0 .48.66 3.954 3.954 0 0 0 .79 2.75 2.786 2.786 0 0 0 .35.42 4 4 0 0 0 3.17 1.14 3.95 3.95 0 0 0 5.32 0 4 4 0 0 0 3.17-1.14 2.786 2.786 0 0 0 .35-.42 3.954 3.954 0 0 0 .79-2.75 3.983 3.983 0 0 0 .48-.66 3.911 3.911 0 0 0 0-4zm-.931 3.75a3.592 3.592 0 0 1 -.42.578 3.459 3.459 0 0 1 -.692 2.406 2.412 2.412 0 0 1 -.306.367 3.5 3.5 0 0 1 -2.773 1 3.458 3.458 0 0 1 -4.656 0 3.5 3.5 0 0 1 -2.773-1 2.412 2.412 0 0 1 -.306-.367 3.459 3.459 0 0 1 -.692-2.406 3.592 3.592 0 0 1 -.42-.578 3.424 3.424 0 0 1 0-3.5 3.548 3.548 0 0 1 .42-.578 3.46 3.46 0 0 1 3.771-3.772 3.458 3.458 0 0 1 4.656 0 3.46 3.46 0 0 1 3.772 3.772 3.548 3.548 0 0 1 .42.578 3.424 3.424 0 0 1 0 3.5z" fill="#ffdc56"></path><path d="m19 19.427a4.88 4.88 0 0 0 -2.264 1.265l2.264-.216z" fill="#d6e0fb"></path><path d="m31.264 20.692a4.88 4.88 0 0 0 -2.264-1.265v1.049z" fill="#d6e0fb"></path><path d="m29 20.476v-1.049a5.257 5.257 0 0 0 -1.675-.14 4.939 4.939 0 0 0 -6.65 0 5.257 5.257 0 0 0 -1.675.14v2.113a3.908 3.908 0 0 1 .605-.275c.069-.025.139-.04.209-.061a3.992 3.992 0 0 1 .538-.124c.084-.013.166-.027.25-.035a4.414 4.414 0 0 1 .736-.015 4.138 4.138 0 0 1 1.21-.751 3.907 3.907 0 0 1 2.9 0 4.151 4.151 0 0 1 1.21.751 4.414 4.414 0 0 1 .736.015c.084.009.166.021.25.035a3.845 3.845 0 0 1 .538.124c.07.021.14.036.209.061a3.908 3.908 0 0 1 .609.275z" fill="#ff767a"></path><path d="m32 26.76 1.871.178a4.825 4.825 0 0 0 -.3-.938 4.9 4.9 0 0 0 -.256-.5 4.974 4.974 0 0 0 -.6-.825 5 5 0 0 0 -1.426-3.963l-.023-.02-2.266-.216v1.064c.023.013.044.03.066.044.049.028.094.061.141.092a3.821 3.821 0 0 1 .623.494 4 4 0 0 1 1.14 3.17 3.983 3.983 0 0 1 .48.66l.012.024c.01.017.017.036.027.053a4.278 4.278 0 0 1 .2.406c.029.068.047.141.072.211.015.042.04.079.054.122z" fill="#bdc3f4"></path><path d="m19 20.476-2.264.216-.023.02a5 5 0 0 0 -1.426 3.963 4.979 4.979 0 0 0 -.6.825 5.107 5.107 0 0 0 -.255.5 4.825 4.825 0 0 0 -.3.938l1.868-.178.18.06c.014-.043.039-.08.054-.122.025-.07.043-.143.072-.211a4.278 4.278 0 0 1 .2-.406c.01-.017.017-.036.027-.053l.017-.028a3.983 3.983 0 0 1 .48-.66 4 4 0 0 1 1.14-3.17 3.821 3.821 0 0 1 .623-.494c.047-.031.092-.064.141-.092.022-.014.043-.031.066-.044z" fill="#bdc3f4"></path><g fill="#eaf6ff"><ellipse cx="25.682" cy="26.708" rx=".825" ry="1.148" transform="matrix(.707 -.707 .707 .707 -11.364 25.995)"></ellipse><ellipse cx="22.427" cy="28.208" rx=".413" ry=".574" transform="matrix(.707 -.707 .707 .707 -13.379 24.133)"></ellipse><ellipse cx="26.682" cy="14.708" rx=".825" ry="1.148" transform="matrix(.707 -.707 .707 .707 -2.582 23.185)"></ellipse><ellipse cx="23.427" cy="14.208" rx=".413" ry=".574" transform="matrix(.707 -.707 .707 .707 -3.183 20.736)"></ellipse></g></g></svg>