<svg width="25" height="25" viewBox="0 0 25 25" fill="none" xmlns="http://www.w3.org/2000/svg">
<path d="M10 6.25C10 11.0825 13.9175 15 18.75 15C21.198 15 23.4112 13.9946 24.9994 12.3744C25 12.4163 25 12.4581 25 12.5C25 19.4035 19.4035 25 12.5 25C5.59644 25 0 19.4035 0 12.5C0 5.59644 5.59644 0 12.5 0C12.5419 0 12.5837 -6.22822e-08 12.6256 0.000612438C11.0054 1.58873 10 3.80196 10 6.25ZM2.5 12.5C2.5 18.0229 6.97715 22.5 12.5 22.5C16.3229 22.5 19.6447 20.3549 21.3275 17.2026C20.4931 17.3984 19.6294 17.5 18.75 17.5C12.5367 17.5 7.5 12.4633 7.5 6.25C7.5 5.3706 7.60166 4.50684 7.79737 3.6725C4.64514 5.35529 2.5 8.67712 2.5 12.5Z" fill="black"/>
</svg>
